<?xml version="1.0" encoding="UTF-8" standalone="no"?>
<svg width="89px" height="87px" viewBox="0 0 89 87" version="1.1" xmlns="http://www.w3.org/2000/svg" xmlns:xlink="http://www.w3.org/1999/xlink" xmlns:sketch="http://www.bohemiancoding.com/sketch/ns">
    <!-- Generator: Sketch 3.3.3 (12072) - http://www.bohemiancoding.com/sketch -->
    <title>ZODB_logo</title>
    <desc>Created with Sketch.</desc>
    <defs></defs>
    <g id="Page-1" stroke="none" stroke-width="1" fill="none" fill-rule="evenodd" sketch:type="MSPage">
        <g id="ZODB_logo" sketch:type="MSLayerGroup" transform="translate(1.000000, 1.000000)" stroke="#1F5913" stroke-width="2">
            <path d="M43.5,85 C67.5243866,85 87,65.9721019 87,42.5 C87,19.0278981 67.5243866,0 43.5,0 C19.4756134,0 0,19.0278981 0,42.5 C0,65.9721019 19.4756134,85 43.5,85 Z M22.567182,62.9328646 C11.1442877,51.5100624 11.1442877,32.9900388 22.567092,21.5671466 C33.9898964,10.1443445 52.5100136,10.1442545 63.932818,21.5670566 C75.3557123,32.9899488 75.3557123,51.5099724 63.932908,62.9328646 C52.5101036,74.3556668 33.9899864,74.3557568 22.567182,62.9328646 Z" id="Oval-1" fill="#42982F" sketch:type="MSShapeGroup"></path>
            <path d="M9.83640265,14.5898623 L11.8733061,24.310227 L16.8264662,25.5598626 L22.8161699,18.1609813" id="shapePath4-Copy-2" sketch:type="MSShapeGroup" transform="translate(16.326286, 20.074862) rotate(27.000000) translate(-16.326286, -20.074862) "></path>
        </g>
    </g>
</svg>